<?xml version="1.0" standalone="no"?>
<!DOCTYPE svg PUBLIC "-//W3C//DTD SVG 20010904//EN"
 "http://www.w3.org/TR/2001/REC-SVG-20010904/DTD/svg10.dtd">
<svg version="1.0" xmlns="http://www.w3.org/2000/svg"
 width="225.000000pt" height="225.000000pt" viewBox="0 0 225.000000 225.000000"
 preserveAspectRatio="xMidYMid meet">

<g transform="translate(0.000000,225.000000) scale(0.100000,-0.100000)"
fill="#000000" stroke="none">
<path d="M630 2167 c-52 -17 -114 -84 -140 -153 -31 -81 -39 -263 -17 -389 9
-49 15 -90 14 -90 -1 -1 -45 -18 -97 -38 -186 -72 -307 -165 -357 -273 -32
-71 -29 -151 11 -218 57 -98 210 -207 378 -270 35 -13 63 -28 63 -32 0 -5 -7
-47 -14 -94 -17 -110 -11 -287 14 -355 28 -79 68 -130 127 -159 134 -67 335
-3 548 175 l45 37 340 5 c367 5 395 8 494 63 130 70 201 210 201 394 0 192
-72 342 -190 395 l-40 18 46 40 c97 86 129 173 122 343 -4 101 -7 118 -36 177
-37 75 -83 119 -162 156 l-55 26 -358 3 -359 3 -61 52 c-86 73 -204 144 -284
173 -74 26 -171 30 -233 11z m235 -187 c95 -47 218 -137 211 -155 -2 -7 -41
-57 -85 -112 l-80 -98 -120 -18 c-66 -9 -126 -20 -134 -23 -33 -12 -54 278
-27 363 33 102 92 112 235 43z m335 -856 l0 -597 -71 89 c-93 116 -204 284
-270 408 l-52 98 33 67 c46 94 144 253 212 344 63 85 142 186 146 186 1 1 2
-267 2 -595z m678 556 c60 -27 86 -86 86 -195 1 -106 -26 -163 -92 -203 -47
-27 -47 -27 -247 -27 l-200 0 -3 223 -2 222 207 0 c185 0 213 -3 251 -20z
m-1109 -292 c-43 -74 -44 -74 -64 -23 -9 25 -14 49 -11 52 5 6 63 19 93 22 7
1 -1 -22 -18 -51z m-224 -35 c3 -16 24 -73 46 -128 l40 -100 -50 -125 c-59
-148 -53 -145 -195 -76 -136 66 -216 144 -216 210 0 34 59 99 129 144 52 33
203 101 227 102 7 0 15 -12 19 -27z m1365 -325 c81 -41 115 -121 108 -253 -6
-113 -48 -187 -121 -214 -17 -7 -118 -11 -253 -11 l-224 0 0 250 0 250 223 0
c211 0 225 -1 267 -22z m-1131 -181 l24 -40 -39 6 c-21 4 -47 7 -56 7 -22 0
-22 13 -1 69 l17 44 15 -23 c9 -13 27 -41 40 -63z m31 -198 l106 -13 42 -57
c24 -32 63 -80 87 -107 l45 -50 -42 -37 c-112 -96 -231 -154 -314 -155 -53 0
-68 10 -93 57 -22 43 -32 161 -21 252 17 132 17 134 54 128 17 -3 78 -11 136
-18z"/>
</g>
</svg>
